<?xml version="1.0" encoding="iso-8859-1"?>
<!-- Uploaded to: SVG Repo, www.svgrepo.com, Generator: SVG Repo Mixer Tools -->
<svg height="800px" width="800px" version="1.1" id="Layer_1" xmlns="http://www.w3.org/2000/svg" xmlns:xlink="http://www.w3.org/1999/xlink" 
	 viewBox="0 0 512 512" xml:space="preserve">
<path style="fill:#FFDA44;" d="M506.298,202.547c-3.639-17.048-27.89-17.747-32.446-0.868
	c-15.349,56.82-67.255,98.886-128.808,98.843c-73.591-0.013-133.552-59.854-133.565-133.565
	c-0.042-61.556,42.024-113.458,98.84-128.808c16.83-4.546,16.229-28.799-0.869-32.446C292.244,2.03,274.371-0.001,256,0
	C114.796,0.031,0.031,114.79,0,256c0.031,141.21,114.796,255.969,256,256c141.204-0.031,255.969-114.79,256-256
	C512.001,237.628,509.971,219.756,506.298,202.547z"/>
<path style="fill:#EEBF00;" d="M495.304,211.478c0-7.25-0.464-14.385-1.237-21.431c-8.097-1.968-17.539,1.715-20.216,11.631
	c-15.349,56.82-67.255,98.885-128.808,98.843c-73.591-0.013-133.552-59.854-133.565-133.565
	c-0.042-61.557,42.024-113.458,98.84-128.808c9.889-2.671,13.595-12.114,11.636-20.215c-7.044-0.772-14.181-1.238-21.433-1.238
	c-107.576,0-194.783,87.207-194.783,194.783s87.207,194.783,194.783,194.783S495.304,319.054,495.304,211.478z"/>
</svg>